<?xml version="1.0" encoding="UTF-8"?>
<svg id="Capa_1" data-name="Capa 1" xmlns="http://www.w3.org/2000/svg" viewBox="0 0 162 123.98">
  <defs>
    <style>
      .cls-1 {
        fill: #fff;
      }
    </style>
  </defs>
  <path d="M162,0H0l18.5,28h48.5v77.5l13.5,18.48,13.5-19.48V28h49.5L162,0ZM97,99l27-39.5v-27l-1.5-1.5h-24l-1.5,1.5v66.5Z"/>
  <polygon class="cls-1" points="162 0 143.5 28 94 28 94 104.5 80.5 123.98 67 105.5 67 28 18.5 28 0 0 162 0"/>
  <polygon class="cls-1" points="97 99 97 32.5 98.5 31 122.5 31 124 32.5 124 59.5 97 99"/>
</svg>